<svg xmlns="http://www.w3.org/2000/svg" width="906.87" height="299.3" viewBox="0 0 906.87 299.3"><polygon points="183.99 299.3 38.14 299.3 114.74 101.13 183.99 299.3" fill="#d0cfce"/><path d="M381.69,299.65h-37.1L265.83,99.89a1.26,1.26,0,0,0-1.6-.76,1.27,1.27,0,0,0-.76.76L184.71,299.65H148.14a1.53,1.53,0,0,1-1.57-1.5,1.5,1.5,0,0,1,.13-.66L245.21,47.61,263.47,1.33a1.59,1.59,0,0,1,2.93,0l17.74,45.6,99,250.56a1.55,1.55,0,0,1-.78,2A1.53,1.53,0,0,1,381.69,299.65Z" transform="translate(-146.57 -0.35)" fill="#8d1828"/><path d="M344.59,299.65h-13.7a2.84,2.84,0,0,1-2.69-1.92L261.55,110.8a9.1,9.1,0,0,1,0-6.3l3.08-7.35Z" transform="translate(-146.57 -0.35)" fill="#9a9a9a"/><path d="M438.14,179.54v70.22c0,8.14,3.25,10.93,13.25,10.93h11.17v21.63H449.3c-24.88,0-33.95-8.61-33.95-32.09V179.54h-19.3V159.07h19.3V130.24h22.79v28.83h30.23v20.47Z" transform="translate(-146.57 -0.35)" fill="#8d1828"/><path d="M488.83,112.56h22.79V170h.46c7.21-8.6,20.23-14.42,33.26-14.42,28.13,0,46.5,18.37,46.5,46.51v80.23H569.06v-76c0-18.37-10.47-29.54-28.14-29.54s-29.3,11.86-29.3,29.54v76H488.83Z" transform="translate(-146.57 -0.35)" fill="#8d1828"/><path d="M619.05,159.07h21.39V169.3h.47c4.88-7.67,14.42-12.32,25.81-12.32a57.31,57.31,0,0,1,13.72,1.86L676,181.63a46.8,46.8,0,0,0-12.79-2.09c-14.18,0-21.39,9.76-21.39,31.16v71.62H619.05Z" transform="translate(-146.57 -0.35)" fill="#8d1828"/><path d="M745.32,155.58c35.11,0,58.83,26.28,58.83,65.12s-23.72,65.11-58.83,65.11-58.84-26.28-58.84-65.11S710.2,155.58,745.32,155.58Zm0,21.16c-22.33,0-36.05,17-36.05,44s13.72,43.95,36.05,43.95,36-17,36-43.95S767.64,176.74,745.32,176.74Z" transform="translate(-146.57 -0.35)" fill="#8d1828"/><path d="M827.87,159.07h21.86V170h.46c7.44-8.6,21.16-14.42,34.19-14.42,28.13,0,46.5,18.37,46.5,47.21v79.53H908.1v-76c0-18.37-10.47-29.54-28.14-29.54s-29.3,11.86-29.3,29.54v76H827.87Z" transform="translate(-146.57 -0.35)" fill="#8d1828"/><path d="M972.51,236.28c4,20.69,13.72,29.3,34.18,29.3,15.12,0,24.42-5.82,24.42-15.12,0-10.93-8.14-15.58-31.63-22.79-29.76-8.37-42.32-17.44-42.32-36.28,0-20.46,18.84-35.81,44.18-35.81,24.88,0,44.19,14.19,49.07,36.51L1029,197.67c-4.19-14.65-13.49-21.86-27.68-21.86-13.25,0-22.09,6.05-22.09,15.12,0,7.67,7,11.63,27.67,17.44,32.33,9.53,46.51,19.77,46.51,41.16,0,22.09-18.6,36.28-46.74,36.28-31.86,0-52.09-16.05-55.58-44.88Z" transform="translate(-146.57 -0.35)" fill="#8d1828"/></svg>